<?xml version="1.0" encoding="UTF-8"?>
<svg id="Layer_1" data-name="Layer 1" xmlns="http://www.w3.org/2000/svg" viewBox="0 0 465.86 72.38">
  <defs>
    <style>
      .cls-1 {
        fill: #00b4ed;
      }
    </style>
  </defs>
  <g>
    <polygon points="42.59 0 42.59 24.34 26.37 24.34 26.37 0 0 0 0 70.98 26.37 70.98 26.37 46.65 42.59 46.65 42.59 70.98 42.59 70.98 68.96 70.98 68.96 0 42.59 0"/>
    <polygon points="104.9 0 78.54 0 78.54 70.98 91.72 70.98 104.9 47.66 104.9 0"/>
    <polygon class="cls-1" points="104.9 47.66 91.72 70.98 136.92 70.98 136.92 47.66 104.9 47.66"/>
  </g>
  <g>
    <path d="M312.92,19.6v5.12c5.52-5.1,8.71-6.48,14.02-6.48,11.15,0,17.95,7.43,17.95,19.54v33.24h-15.08v-27.93c0-5.2-.32-7.22-1.59-9.13-1.28-1.91-3.5-2.97-6.16-2.97s-4.89,.96-6.48,2.76c-1.7,1.91-2.23,4.04-2.23,8.5v28.78h-15.08V19.6h14.65Z"/>
    <path d="M465.86,45.68c0,15.53-11.49,26.7-27.34,26.7s-27.24-11.17-27.24-27.13,11.28-27.02,27.24-27.02,27.34,11.06,27.34,27.45Zm-39.36-.43c0,9.68,4.36,15.11,12.13,15.11s12.02-5.43,12.02-14.79c0-9.89-4.25-15.32-12.13-15.32s-12.02,5.43-12.02,15Z"/>
    <path d="M289.33,71.01h-15.1v-4.23c-3.79,3.56-8.85,5.6-15.17,5.6-12.94,0-23.83-10.89-23.83-27.07s10.89-27.07,23.83-27.07c6.32,0,11.38,2.04,15.17,5.6v-4.24h15.1v51.42Zm-14.05-25.71c0-8.53-6.14-14.41-13.02-14.41-7.41,0-12.81,5.87-12.81,14.41s5.4,14.41,12.81,14.41c6.88,0,13.02-5.76,13.02-14.41Z"/>
    <polygon points="211.5 .04 194.19 40.34 177 .04 159.2 .04 159.2 70.98 163.91 70.98 172.5 70.98 173.73 70.98 173.73 24.89 189.95 60.09 198.43 60.09 214.56 25.09 214.56 70.98 215.88 70.98 224.38 70.98 229.08 70.98 229.08 .04 211.5 .04"/>
    <path d="M405.08,71.01V.03h-15.02l-.1,24.05c-3.77-3.54-8.81-5.57-15.1-5.57-12.87,0-23.71,10.94-23.71,26.94s10.84,26.94,23.71,26.94c6.29,0,11.32-2.03,15.1-5.57v4.2h15.12Zm-27.03-11.23c-7.37,0-12.75-5.73-12.75-14.34,0-8.49,5.37-14.34,12.75-14.34,6.85,0,12.96,5.84,12.96,14.34s-6.11,14.34-12.96,14.34Z"/>
  </g>
</svg>